<?xml version="1.0" standalone="no"?>
<!DOCTYPE svg PUBLIC "-//W3C//DTD SVG 20010904//EN"
 "http://www.w3.org/TR/2001/REC-SVG-20010904/DTD/svg10.dtd">
<svg version="1.0" xmlns="http://www.w3.org/2000/svg"
 width="700.000000pt" height="700.000000pt" viewBox="0 0 700.000000 700.000000"
 preserveAspectRatio="xMidYMid meet">

<g transform="translate(0.000000,700.000000) scale(0.100000,-0.100000)"
fill="#000000" stroke="none">
<path d="M3425 5744 c-27 -9 -61 -24 -75 -34 -30 -22 -717 -711 -891 -895 -68
-71 -259 -267 -425 -435 -166 -168 -317 -323 -335 -345 -19 -21 -142 -149
-273 -282 -132 -134 -243 -249 -248 -256 -15 -23 -8 -54 18 -81 54 -54 54 -54
385 279 166 167 306 302 311 299 4 -3 8 -571 8 -1263 l0 -1258 31 -61 c45 -90
115 -141 224 -162 44 -8 420 -10 1380 -8 1258 3 1322 4 1370 22 74 27 129 77
164 148 l31 61 0 1258 c0 692 4 1260 8 1263 5 3 145 -132 311 -299 255 -257
307 -305 331 -305 38 0 70 41 70 88 0 34 -17 53 -238 277 -346 350 -1079 1098
-1122 1146 -8 9 -192 194 -408 412 -274 276 -405 401 -435 415 -61 28 -132 34
-192 16z m404 -430 c146 -148 456 -461 689 -696 l422 -426 0 -1350 0 -1350
-25 -30 c-56 -66 44 -62 -1417 -62 -1269 0 -1325 1 -1358 19 -19 10 -45 33
-57 51 l-23 33 0 1344 0 1344 413 417 c226 229 534 540 682 690 149 151 279
278 290 283 11 5 42 7 69 5 l49 -3 266 -269z"/>
<path d="M2990 4381 c0 -5 -10 -11 -22 -15 -48 -12 -150 -125 -164 -181 -4
-16 -12 -36 -18 -44 -16 -20 -15 -256 2 -272 6 -7 12 -22 12 -33 0 -12 11 -39
25 -61 13 -22 28 -49 33 -60 20 -42 117 -122 175 -143 68 -26 100 -27 155 -8
96 34 164 106 205 216 19 50 25 284 8 294 -5 3 -12 21 -15 40 -4 19 -18 54
-31 79 -32 56 -157 177 -183 177 -12 0 -24 5 -27 10 -8 12 -155 13 -155 1z"/>
<path d="M3825 4368 c-52 -26 -151 -122 -177 -173 -45 -86 -58 -144 -58 -254
0 -132 23 -205 91 -291 31 -40 116 -88 173 -97 129 -21 297 118 352 292 27 84
27 250 0 320 -26 65 -83 153 -110 167 -11 6 -23 14 -26 17 -36 43 -174 54
-245 19z"/>
<path d="M2400 3738 c-50 -11 -91 -36 -133 -82 -32 -35 -67 -97 -67 -121 0 -8
-4 -15 -10 -15 -6 0 -10 -48 -10 -125 0 -77 4 -125 10 -125 6 0 10 -9 10 -20
0 -40 64 -156 119 -214 104 -110 234 -145 346 -92 60 27 103 74 141 152 26 54
29 69 29 169 0 79 -5 123 -17 156 -65 178 -179 293 -315 319 -31 5 -57 10 -57
9 -1 -1 -21 -6 -46 -11z"/>
<path d="M4479 3736 c-100 -26 -196 -109 -253 -217 -26 -49 -35 -75 -53 -149
-8 -31 -8 -180 -1 -200 3 -8 9 -29 12 -45 4 -17 24 -55 44 -85 107 -159 305
-161 453 -4 55 58 119 174 119 214 0 11 5 20 10 20 6 0 10 50 10 130 0 72 -3
130 -7 130 -5 0 -16 19 -25 43 -52 125 -186 195 -309 163z"/>
<path d="M3365 3462 c-135 -45 -221 -121 -301 -267 -6 -11 -27 -51 -48 -89
-53 -97 -114 -174 -198 -248 -153 -134 -207 -191 -232 -242 -14 -29 -26 -60
-26 -69 0 -9 -4 -19 -10 -22 -12 -8 -13 -202 -1 -209 5 -3 12 -22 15 -41 11
-58 48 -116 116 -186 62 -63 131 -109 165 -109 8 0 15 -4 15 -10 0 -13 187
-13 195 0 3 6 13 10 22 10 8 0 81 33 162 73 233 116 291 118 493 15 59 -30
128 -63 155 -73 26 -10 52 -22 57 -26 14 -13 196 -11 196 1 0 6 7 10 15 10 21
0 91 36 134 69 61 46 120 138 155 241 18 51 22 225 6 235 -5 3 -10 15 -10 25
0 60 -79 155 -262 313 -85 73 -142 147 -203 262 -26 50 -53 97 -61 106 -8 8
-14 20 -14 26 0 5 -25 37 -55 71 -60 65 -134 112 -220 137 -68 19 -195 18
-260 -3z"/>
</g>
</svg>
