<?xml version="1.0" encoding="UTF-8"?>
<svg version="1.1" xmlns="http://www.w3.org/2000/svg" width="500" height="500">
<path d="M0 0 C1.97709366 1.49441815 3.82480382 3.06973354 5.66967773 4.72436523 C7.05673136 5.90909231 8.44477021 7.09266678 9.83374023 8.27514648 C10.51855469 8.86763184 11.20336914 9.46011719 11.90893555 10.07055664 C14.88358653 12.60962857 17.95591284 15.01400827 21.04467773 17.41186523 C22.19330352 18.310062 23.34174165 19.2084988 24.48999023 20.10717773 C25.05492187 20.54835938 25.61985352 20.98954102 26.2019043 21.4440918 C29.11239388 23.71920446 32.01565128 26.00351277 34.91967773 28.28686523 C38.46532804 31.07358535 42.01167167 33.85941021 45.56030273 36.64233398 C53.17694874 42.61732002 60.76218824 48.62869226 68.29858398 54.70483398 C72.8370563 58.35455249 77.41505988 61.94078515 82.04467773 65.47436523 C89.80835704 71.40705394 97.3529362 77.60655683 104.91967773 83.78686523 C109.50791191 87.53113225 114.11318955 91.21576206 118.90795898 94.69311523 C119.97626953 95.47416626 119.97626953 95.47416626 121.06616211 96.27099609 C122.47066094 97.29445021 123.88178845 98.30889274 125.30053711 99.3125 C131.07544576 103.5277566 135.33325812 107.40813365 136.59155273 114.65795898 C136.64245817 116.17946581 136.66611468 117.70201123 136.66967773 119.22436523 C136.69151123 120.12243896 136.71334473 121.0205127 136.73583984 121.94580078 C136.78498038 124.03877948 136.82383275 126.1320144 136.85473633 128.2253418 C136.92518261 132.08876428 137.05361981 135.94878732 137.18920898 139.81030273 C137.88685157 160.6265658 138.0264945 181.44465771 138.04261398 202.27083969 C138.04463518 204.30651017 138.04837787 206.34217098 138.05252075 208.37783813 C138.07703015 224.34010781 137.87121112 240.27174609 137.26907349 256.22157288 C137.01021126 263.16033825 136.87383822 270.07987979 136.91000366 277.02371216 C136.92253004 280.60155499 136.84043203 284.15016746 136.66967773 287.72436523 C136.62327148 288.92963867 136.57686523 290.13491211 136.52905273 291.37670898 C135.79729514 295.47173707 134.64229381 297.64854772 131.91967773 300.78686523 C126.41611039 303.3654408 120.85990019 303.0692422 114.91235352 303.04756165 C113.24492442 303.05329997 113.24492442 303.05329997 111.54380989 303.05915421 C107.81748863 303.06947631 104.09132167 303.06549351 100.36499023 303.06152344 C97.69406625 303.0658703 95.0231536 303.07098884 92.35223389 303.07701111 C85.84988565 303.08975422 79.34757871 303.09155234 72.84522009 303.08921085 C67.5603219 303.08742734 62.27543624 303.08917803 56.99053955 303.09343529 C55.86201008 303.09432807 55.86201008 303.09432807 54.71068203 303.09523889 C53.18226162 303.09645065 51.65384122 303.09766478 50.12542081 303.09888127 C35.79552411 303.109755 21.46565094 303.10759492 7.13575292 303.10149642 C-5.97395755 303.09632563 -19.08359375 303.10758727 -32.19328952 303.12659464 C-45.65648322 303.14596486 -59.11964177 303.15423059 -72.5828495 303.15047139 C-80.14060536 303.14855833 -87.69829798 303.15105722 -95.25604248 303.16518593 C-101.68892072 303.1770902 -108.12169678 303.17851527 -114.5545764 303.16639576 C-117.83637032 303.16050071 -121.11793833 303.16104775 -124.39972687 303.17139816 C-127.95765848 303.18181183 -131.51508492 303.17380775 -135.07299805 303.16108704 C-136.10976622 303.16846132 -137.14653439 303.17583561 -138.21471977 303.18343335 C-144.49051182 303.13611164 -148.9011962 302.41786611 -153.89282227 298.28686523 C-156.65760942 294.79450251 -156.22861193 290.77857966 -156.22749329 286.56378174 C-156.23116997 285.82295089 -156.23484666 285.08212005 -156.23863477 284.31883979 C-156.24967294 281.82933348 -156.25351566 279.33986892 -156.25732422 276.8503418 C-156.26358875 275.06817492 -156.27023555 273.28600935 -156.27723694 271.50384521 C-156.29464708 266.65660455 -156.3051987 261.80937375 -156.31344247 256.96210957 C-156.31859251 253.93396394 -156.32466823 250.90582138 -156.3309536 247.87767792 C-156.35000556 238.40405029 -156.3642368 228.93043045 -156.37256557 219.45678735 C-156.3823396 208.51967808 -156.40866346 197.5827711 -156.44906646 186.64573312 C-156.47922107 178.1929775 -156.49403381 169.7402799 -156.49734658 161.28747153 C-156.49969775 156.23853569 -156.50866702 151.18981597 -156.53380775 146.14093781 C-156.55708207 141.3901203 -156.56132427 136.63966131 -156.55104637 131.88880157 C-156.55055075 130.14694018 -156.55687895 128.40506118 -156.57060242 126.66325378 C-156.58831859 124.28103509 -156.58121751 121.90010346 -156.56806946 119.5178833 C-156.58452333 118.48930879 -156.58452333 118.48930879 -156.6013096 117.439955 C-156.5227594 111.52582089 -154.47448918 107.27243085 -150.37280273 103.01416016 C-149.54353271 102.3969812 -149.54353271 102.3969812 -148.69750977 101.76733398 C-148.0877832 101.30262695 -147.47805664 100.83791992 -146.84985352 100.35913086 C-145.91206055 99.67367187 -145.91206055 99.67367187 -144.95532227 98.97436523 C-140.34446689 95.585806 -140.34446689 95.585806 -136.08032227 91.78686523 C-135.00815695 90.95968393 -133.9227064 90.14965535 -132.83032227 89.34936523 C-124.66126666 83.27455843 -116.70923272 76.90486051 -108.76782227 70.53686523 C-107.20532227 69.28686523 -105.64282227 68.03686523 -104.08032227 66.78686523 C-103.24114258 66.11139648 -102.40196289 65.43592773 -101.53735352 64.73999023 C-100.7265332 64.09545898 -99.91571289 63.45092773 -99.08032227 62.78686523 C-98.35844727 62.20936523 -97.63657227 61.63186523 -96.89282227 61.03686523 C-95.08032227 59.78686523 -95.08032227 59.78686523 -93.08032227 59.78686523 C-93.08032227 59.12686523 -93.08032227 58.46686523 -93.08032227 57.78686523 C-91.15106496 56.23224964 -89.22384973 54.77896306 -87.20532227 53.34936523 C-83.96588562 51.04568233 -81.32598313 49.15535653 -79.08032227 45.78686523 C-77.4761029 44.89942473 -75.87075065 44.01397569 -74.26000977 43.13842773 C-69.51010073 40.19314363 -65.36011437 36.36418112 -61.08032227 32.78686523 C-55.56044329 28.31485566 -49.98254097 23.92103457 -44.36547852 19.57202148 C-41.89824092 17.64462391 -39.45712296 15.68697816 -37.01782227 13.72436523 C-33.3319312 10.76187335 -29.59358528 7.89569361 -25.77172852 5.11108398 C-24.05110621 3.82718862 -24.05110621 3.82718862 -22.61157227 2.26342773 C-20.8574488 0.57195154 -19.1977647 -0.43764172 -17.01782227 -1.52563477 C-16.3255957 -1.89301758 -15.63336914 -2.26040039 -14.92016602 -2.63891602 C-9.73788983 -3.68677654 -4.57183112 -2.66605197 0 0 Z M-17.95532227 19.28686523 C-18.81383789 20.03323242 -19.67235352 20.77959961 -20.55688477 21.54858398 C-21.80598633 22.6565332 -21.80598633 22.6565332 -23.08032227 23.78686523 C-24.48660803 24.9042232 -25.90301532 26.00898762 -27.33032227 27.09936523 C-35.49909673 33.43521681 -43.66720567 39.77093695 -51.64282227 46.34936523 C-55.98290105 49.92391992 -60.41261017 53.36084949 -64.88427734 56.76879883 C-69.43516596 60.254045 -73.88998258 63.84969327 -78.33032227 67.47436523 C-86.6993188 74.30232562 -95.13012219 80.90119741 -103.99047852 87.08764648 C-105.02495117 87.92875977 -105.02495117 87.92875977 -106.08032227 88.78686523 C-106.08032227 89.44686523 -106.08032227 90.10686523 -106.08032227 90.78686523 C-106.66040039 91.0562793 -107.24047852 91.32569336 -107.83813477 91.60327148 C-110.1068609 92.80087431 -111.94947335 94.12827145 -113.95532227 95.72436523 C-114.73262695 96.33924805 -115.50993164 96.95413086 -116.31079102 97.58764648 C-117.68170898 98.67625977 -117.68170898 98.67625977 -119.08032227 99.78686523 C-120.24240483 100.69788681 -121.40520882 101.60798863 -122.56860352 102.51733398 C-123.80172105 103.48212071 -125.03479399 104.44696444 -126.26782227 105.41186523 C-126.84967285 105.86682373 -127.43152344 106.32178223 -128.03100586 106.79052734 C-129.71957069 108.1158851 -131.39997416 109.45111493 -133.08032227 110.78686523 C-133.63800293 111.21837891 -134.19568359 111.64989258 -134.77026367 112.09448242 C-137.73641462 114.44834213 -139.74787911 116.23725732 -141.08032227 119.78686523 C-141.38708499 122.87118544 -141.38708499 122.87118544 -141.3477478 126.34642029 C-141.35227892 127.00376209 -141.35681003 127.66110389 -141.36147845 128.33836514 C-141.3741309 130.5392877 -141.37250158 132.73996308 -141.37084961 134.94091797 C-141.37683428 136.51958535 -141.38363968 138.0982498 -141.39120483 139.6769104 C-141.40887677 143.96407825 -141.41356067 148.25116628 -141.41483641 152.53836703 C-141.41673554 156.11697771 -141.4240931 159.6955698 -141.4311806 163.27417332 C-141.44746613 171.71632044 -141.45234934 180.15842491 -141.45092773 188.60058594 C-141.44972573 197.31095623 -141.47083875 206.02107897 -141.50241506 214.7313866 C-141.52855798 222.20920238 -141.53929589 229.68693719 -141.53801692 237.16479832 C-141.53750676 241.63126487 -141.54321938 246.09751136 -141.56437302 250.56393242 C-141.58372249 254.76404948 -141.58390267 258.96373579 -141.56933975 263.16386795 C-141.56724655 264.70499487 -141.571983 266.24614852 -141.58406067 267.78722954 C-141.59948807 269.89210267 -141.59022413 271.99548572 -141.57479858 274.10032654 C-141.57588812 275.27779166 -141.57697765 276.45525679 -141.5781002 277.66840267 C-140.97715804 281.43316503 -139.73565772 283.10042732 -137.08032227 285.78686523 C-134.96484562 286.59915919 -134.96484562 286.59915919 -132.64282227 286.59936523 C-131.32024414 286.66704102 -131.32024414 286.66704102 -129.97094727 286.73608398 C-129.01704102 286.7528418 -128.06313477 286.76959961 -127.08032227 286.78686523 C-126.08516602 286.81393555 -125.09000977 286.84100586 -124.06469727 286.86889648 C-115.70088226 286.9821994 -107.41368113 286.43232595 -99.08032227 285.78686523 C-98.11422443 277.31827132 -97.96526665 268.96337071 -98.03027344 260.44628906 C-98.03712015 259.03894788 -98.04344769 257.63160409 -98.04930115 256.22425842 C-98.06253311 253.21620001 -98.07864668 250.20817614 -98.09685326 247.20014381 C-98.12490633 242.43778509 -98.14176259 237.6754264 -98.15632629 232.91300964 C-98.16146863 231.27656646 -98.16662526 229.64012332 -98.17179585 228.00368023 C-98.17567419 226.77539519 -98.17567419 226.77539519 -98.17963088 225.52229631 C-98.21557252 214.45130823 -98.26118752 203.38042147 -98.32714844 192.30957031 C-98.37169732 184.81737304 -98.4019146 177.3252633 -98.41600591 169.83294505 C-98.42405753 165.87670984 -98.43947896 161.92081133 -98.47267723 157.9647007 C-98.50382739 154.24714351 -98.51619822 150.52999014 -98.51445961 146.81230736 C-98.51841965 144.80761993 -98.5423058 142.80300245 -98.56689453 140.79846191 C-98.54132287 133.18569809 -98.18841837 126.93992917 -92.55198956 121.24180317 C-90.97826323 119.85773274 -89.34535564 118.63357532 -87.64282227 117.41186523 C-87.03680176 116.95561768 -86.43078125 116.49937012 -85.80639648 116.02929688 C-83.90745624 114.6015278 -81.99444917 113.19418298 -80.08032227 111.78686523 C-78.19975975 110.3822977 -76.32445009 108.97142832 -74.45507812 107.55200195 C-73.30643347 106.68046161 -72.15242413 105.81593785 -70.99267578 104.95922852 C-69.65184572 103.94872965 -68.3603281 102.87338181 -67.08032227 101.78686523 C-67.08032227 101.12686523 -67.08032227 100.46686523 -67.08032227 99.78686523 C-66.38938477 99.55999023 -65.69844727 99.33311523 -64.98657227 99.09936523 C-61.41711205 97.48735094 -58.59207492 95.24205713 -55.58032227 92.78686523 C-54.33212081 91.78754689 -53.08341159 90.78886249 -51.83422852 89.79077148 C-50.89281006 89.03497803 -50.89281006 89.03497803 -49.93237305 88.26391602 C-47.15458957 86.04857327 -44.33905531 83.883934 -41.51782227 81.72436523 C-40.45266818 80.90802411 -39.38756413 80.09161771 -38.32250977 79.27514648 C-37.52925293 78.66727295 -37.52925293 78.66727295 -36.7199707 78.04711914 C-35.00562699 76.72945353 -33.29639659 75.40537308 -31.58813477 74.07983398 C-31.01135986 73.63325439 -30.43458496 73.1866748 -29.84033203 72.7265625 C-28.24367618 71.48997516 -26.64828438 70.25175618 -25.05297852 69.01342773 C-18.92893451 64.42643025 -15.11540668 61.73134658 -7.33422852 62.03686523 C-1.45420874 63.39216391 2.60838652 67.32087083 7.04614258 71.19067383 C10.54278914 74.1697037 14.21628133 76.92523703 17.85717773 79.72436523 C19.3998251 80.92362562 20.94150049 82.12413739 22.48217773 83.32592773 C23.22983398 83.90890625 23.97749023 84.49188477 24.74780273 85.0925293 C25.46452148 85.65166016 26.18124023 86.21079102 26.91967773 86.78686523 C27.57709961 87.29958984 28.23452148 87.81231445 28.91186523 88.34057617 C34.92378572 93.03349128 40.90560349 97.75239055 46.79467773 102.59936523 C49.73215796 105.01671108 52.6772195 107.39486663 55.73217773 109.66186523 C59.58760297 112.52933775 63.42222965 115.42177721 67.23217773 118.34936523 C67.84359619 118.80875488 68.45501465 119.26814453 69.08496094 119.74145508 C74.21230751 123.70766492 76.87903112 127.2647351 77.91967773 133.78686523 C78.00060382 135.80740658 78.0289637 137.83038351 78.01974487 139.8525238 C78.01678406 141.0707785 78.01382324 142.2890332 78.01077271 143.54420471 C78.00245001 144.88607831 77.99405527 146.22795147 77.9855957 147.56982422 C77.98039969 148.98937822 77.97569212 150.40893408 77.97143555 151.82849121 C77.96150997 154.8808556 77.94866616 157.93318894 77.93371201 160.98553276 C77.91061384 165.81407871 77.89733492 170.64262052 77.88601685 175.47120667 C77.85261114 189.20025929 77.81094728 202.92925063 77.74829102 216.65820312 C77.7137529 224.2440962 77.6899542 231.82994412 77.67808259 239.41590744 C77.66999114 244.21383452 77.64876249 249.0114658 77.61787772 253.80929744 C77.60184929 256.79670577 77.59845822 259.78402954 77.59864807 262.77147675 C77.5962303 264.15416685 77.58867067 265.53685924 77.57551956 266.91948891 C77.55828208 268.81099127 77.56149351 270.70264667 77.56564331 272.59422302 C77.55954701 274.18010554 77.55954701 274.18010554 77.55332756 275.79802608 C78.00874231 279.51349158 79.20874707 283.07593457 81.91967773 285.78686523 C84.46647068 285.92501899 86.98423562 285.99997209 89.53295898 286.02514648 C90.29891891 286.03321823 91.06487885 286.04128998 91.85404968 286.04960632 C93.47901129 286.06346274 95.1040022 286.0741779 96.72900391 286.08203125 C99.21174588 286.09922375 101.69314924 286.14309053 104.17553711 286.18725586 C105.75300126 286.19738431 107.33047675 286.20589994 108.90795898 286.21264648 C110.0206591 286.23890862 110.0206591 286.23890862 111.15583801 286.26570129 C114.40677113 286.25205977 116.46184319 286.12385897 119.11654758 284.169837 C121.49969132 281.02033377 121.42018882 279.11911721 121.42088318 275.18934631 C121.42641758 274.52792096 121.43195197 273.86649561 121.43765408 273.18502706 C121.45126117 270.96997368 121.4362925 268.75604704 121.42138672 266.54101562 C121.42516995 264.95249452 121.43067002 263.36397671 121.4377594 261.77546692 C121.45173209 257.46131603 121.44053115 253.14756317 121.42404819 248.83343434 C121.41020511 244.31940851 121.41665701 239.80540597 121.42018127 235.29136658 C121.42288427 227.70947857 121.40940114 220.12774879 121.38623047 212.54589844 C121.35962973 203.78102057 121.35787025 195.01640744 121.36961883 186.25150305 C121.38040025 177.82062841 121.37420606 169.38984951 121.36006355 160.95898247 C121.35430594 157.37096328 121.35438469 153.78301419 121.35912895 150.19499397 C121.36390319 145.96863573 121.35377865 141.74256712 121.3321743 137.51626396 C121.32661197 135.96547802 121.32613607 134.41466422 121.33112717 132.86387634 C121.33708814 130.74605263 121.32456057 128.629112 121.30735779 126.5113678 C121.30371294 124.7341086 121.30371294 124.7341086 121.29999447 122.92094517 C120.47973852 116.16145372 115.98012815 112.80322938 110.91967773 108.78686523 C110.40904785 108.38129395 109.89841797 107.97572266 109.37231445 107.55786133 C102.8929996 102.42075647 96.36460289 97.34695637 89.82202148 92.29077148 C88.00209143 90.85201775 86.2401168 89.36279479 84.48217773 87.84936523 C82.20824456 85.5778621 82.20824456 85.5778621 79.91967773 85.78686523 C79.91967773 85.12686523 79.91967773 84.46686523 79.91967773 83.78686523 C78.26841168 82.30343669 78.26841168 82.30343669 76.16967773 80.84936523 C75.47358398 80.3453418 74.77749023 79.84131836 74.06030273 79.32202148 C73.35389648 78.81541992 72.64749023 78.30881836 71.91967773 77.78686523 C71.21327148 77.22870117 70.50686523 76.67053711 69.77905273 76.09545898 C68.02603489 74.59501991 68.02603489 74.59501991 65.91967773 74.78686523 C65.91967773 74.12686523 65.91967773 73.46686523 65.91967773 72.78686523 C63.98356581 71.18482203 63.98356581 71.18482203 61.41967773 69.47436523 C56.38084973 65.90682293 51.56883891 62.13827187 46.79467773 58.22436523 C45.41062539 57.09147669 44.02651243 55.95866221 42.64233398 54.82592773 C41.67191162 54.0317041 41.67191162 54.0317041 40.68188477 53.22143555 C37.14589082 50.34286802 33.53988519 47.55819646 29.91967773 44.78686523 C27.77333086 43.1416958 25.62733054 41.49609001 23.48217773 39.84936523 C22.92248291 39.41986572 22.36278809 38.99036621 21.78613281 38.54785156 C18.46819684 35.99592792 15.18064987 33.41155012 11.91967773 30.78686523 C11.12948242 30.15651367 10.33928711 29.52616211 9.52514648 28.87670898 C8.12469201 27.75340592 6.72616499 26.62756865 5.34008789 25.48657227 C3.6474832 24.09465671 1.94089505 22.72142805 0.23217773 21.34936523 C-0.29053711 20.91172852 -0.81325195 20.4740918 -1.35180664 20.02319336 C-7.17446342 15.40168842 -12.24491424 14.13403913 -17.95532227 19.28686523 Z M-26.03735352 89.94702148 C-28.74050816 92.38141123 -31.59948314 94.57131476 -34.48266602 96.78686523 C-37.59435758 99.18263378 -40.68163116 101.60839395 -43.76782227 104.03686523 C-44.36344971 104.50503662 -44.95907715 104.97320801 -45.57275391 105.45556641 C-48.59494814 107.83109907 -51.61571548 110.20842924 -54.63500977 112.58764648 C-55.5059729 113.27322632 -55.5059729 113.27322632 -56.39453125 113.97265625 C-57.55629672 114.88749991 -58.71727282 115.80334692 -59.87744141 116.72021484 C-62.79268416 119.01760878 -65.72703866 121.28001034 -68.70922852 123.48999023 C-69.29631592 123.92883545 -69.88340332 124.36768066 -70.48828125 124.81982422 C-72.09951808 126.02051983 -73.71856639 127.21071285 -75.33813477 128.40014648 C-79.35538235 131.89663975 -81.761494 134.27779248 -82.44143105 139.62867165 C-82.58112974 143.31289403 -82.58698084 146.98539352 -82.55029297 150.67089844 C-82.55080214 152.08886374 -82.55306021 153.50682932 -82.55693054 154.92478943 C-82.56233767 158.76341242 -82.54297472 162.60155057 -82.51882958 166.4400866 C-82.49750916 170.45680236 -82.49812757 174.47351681 -82.49613953 178.49028015 C-82.48969838 185.22960747 -82.4684699 191.96875284 -82.43701172 198.70800781 C-82.39663906 207.36861745 -82.3793115 216.02910888 -82.36970234 224.68980122 C-82.3614145 232.129585 -82.34417812 239.56934357 -82.32466483 247.00910544 C-82.31859162 249.40484054 -82.31345254 251.8005766 -82.30831337 254.19631386 C-82.29955432 257.95147779 -82.28526894 261.70658262 -82.26660347 265.46170998 C-82.26046407 266.84325004 -82.25602334 268.2247988 -82.25336075 269.60634995 C-82.24940032 271.48431178 -82.23865057 273.36225573 -82.22749329 275.2401886 C-82.2232198 276.29337941 -82.21894632 277.34657022 -82.21454334 278.43167591 C-82.34492356 280.74417358 -82.34492356 280.74417358 -81.08032227 281.78686523 C-71.57980554 281.63363109 -63.97223784 277.77098284 -57.01782227 271.34936523 C-43.45888847 256.78606598 -32.81819402 235.97073985 -33.08032227 215.78686523 C-33.72153803 211.74720591 -34.20273603 209.65599688 -37.10766602 206.77905273 C-41.53609179 203.81125097 -46.31294161 202.6282111 -51.39868164 201.16381836 C-57.42813644 199.31209458 -61.91316239 197.12283043 -65.47094727 191.64624023 C-68.58093561 184.01263248 -72.10269567 175.00285731 -69.08032227 166.78686523 C-66.30524301 165.11966198 -63.73340824 164.39791587 -60.56079102 163.85717773 C-59.70291992 163.70120117 -58.84504883 163.54522461 -57.96118164 163.38452148 C-56.17829867 163.07164427 -54.39444054 162.7642695 -52.60961914 162.46264648 C-45.65753667 161.18350491 -40.57306993 159.34041162 -35.51782227 154.16186523 C-30.84162254 149.60556807 -24.41895988 148.86452083 -18.08032227 148.78686523 C-14.01195208 149.18217246 -10.07077436 149.91053066 -6.08032227 150.78686523 C-5.18700195 150.98280273 -4.29368164 151.17874023 -3.37329102 151.38061523 C6.2412596 153.86178959 12.82510038 159.32422452 17.91967773 167.78686523 C19.80786977 172.20230218 21.29793636 176.7262098 22.79467773 181.28686523 C29.41305399 200.58141093 38.56059594 225.13919526 57.59594727 235.44580078 C58.40581085 235.88691696 59.21567444 236.32803314 60.05007935 236.78251648 C60.66704681 237.11395157 61.28401428 237.44538666 61.91967773 237.78686523 C61.9891997 224.98252758 62.04250031 212.17823486 62.07511425 199.37374687 C62.09076759 193.42805182 62.11200012 187.48248594 62.14599609 181.53686523 C62.17860091 175.79861303 62.19653325 170.06048506 62.20430946 164.32214737 C62.20985092 162.13329233 62.22067199 159.94444407 62.2368679 157.75564194 C62.25865674 154.68891476 62.261644 151.62270038 62.26025391 148.5559082 C62.27103973 147.65175674 62.28182556 146.74760529 62.29293823 145.8160553 C62.26791609 140.71181299 61.75841595 137.20710836 58.91967773 132.78686523 C56.49887361 130.32215844 56.49887361 130.32215844 53.60717773 128.09936523 C53.08373779 127.6778418 52.56029785 127.25631836 52.02099609 126.82202148 C50.32943249 125.46537899 48.62550507 124.12551251 46.91967773 122.78686523 C45.77088582 121.87455093 44.62244956 120.96178858 43.47436523 120.04858398 C37.20885806 115.08329922 30.8756801 110.20669273 24.53100586 105.34326172 C20.51377624 102.25860326 16.55241166 99.11019346 12.60327148 95.93920898 C9.25682286 93.25523054 5.90566018 90.57762183 2.54467773 87.91186523 C1.94921143 87.43499268 1.35374512 86.95812012 0.74023438 86.46679688 C-9.95789385 78.00523232 -16.66862679 81.3756332 -26.03735352 89.94702148 Z M-32.13891602 167.75952148 C-36.57239239 171.61813478 -41.36601825 172.53382233 -47.01782227 173.66186523 C-48.47285156 173.97897461 -48.47285156 173.97897461 -49.95727539 174.30249023 C-52.32825656 174.81639748 -54.70155921 175.31053719 -57.08032227 175.78686523 C-56.55548291 181.01211341 -56.55548291 181.01211341 -54.08032227 185.53686523 C-50.25819491 188.40346075 -46.61965025 189.45998475 -42.08032227 190.78686523 C-27.65435407 195.4901261 -27.65435407 195.4901261 -23.83032227 202.78686523 C-17.00058161 217.11812431 -21.60527791 234.30743461 -26.33032227 248.55639648 C-31.08149034 261.44663941 -38.14299171 273.34818302 -47.68188477 283.28295898 C-49.19381587 284.56664816 -49.19381587 284.56664816 -49.08032227 285.78686523 C-35.606819 285.87950814 -22.13339139 285.95060151 -8.65963459 285.99411392 C-2.40334645 286.01499675 3.85272392 286.04332771 10.10888672 286.08862305 C16.14540055 286.13205504 22.1817048 286.1559971 28.21836281 286.16637421 C30.5224926 286.17377026 32.8266108 286.18821283 35.13065147 286.20978546 C38.35574592 286.23878345 41.57997214 286.24282263 44.80517578 286.2409668 C45.75967621 286.2553479 46.71417664 286.269729 47.69760132 286.2845459 C51.95582002 286.25799722 54.28077776 286.18228753 57.96980286 283.89910889 C61.57615466 279.99245119 62.4155058 276.26901594 62.21655273 270.94702148 C60.95191079 261.74508731 54.48074144 254.90214238 47.91967773 248.78686523 C47.25967773 248.78686523 46.59967773 248.78686523 45.91967773 248.78686523 C45.6940918 248.23643555 45.46850586 247.68600586 45.23608398 247.11889648 C43.52397246 244.08586806 41.29909617 241.95749749 38.85717773 239.47436523 C32.63979345 232.9244566 28.22289191 225.68487954 23.91967773 217.78686523 C23.19844727 216.49329102 23.19844727 216.49329102 22.46264648 215.17358398 C18.51276776 207.71270195 15.78069896 199.7112058 12.91967773 191.78686523 C11.97092773 192.65311523 11.02217773 193.51936523 10.04467773 194.41186523 C-1.59294381 204.34642021 -1.59294381 204.34642021 -9.08032227 203.78686523 C-8.59040316 199.12418689 -6.74021289 196.78337352 -3.70532227 193.28686523 C1.32348732 187.45541178 4.44373559 183.0703445 5.29467773 175.41186523 C4.92047368 171.79455937 4.30429067 169.80489148 1.79467773 167.13842773 C-8.96811369 159.38024892 -22.64689353 158.33097057 -32.13891602 167.75952148 Z " fill="#131313" transform="translate(266.080322265625,64.213134765625)"/>
<path d="M0 0 C0.33 0 0.66 0 1 0 C2.75487871 30.46768152 3.09932096 60.97329567 3.12293625 91.48397446 C3.12495745 93.51964494 3.12870014 95.55530575 3.13284302 97.5909729 C3.15735242 113.55324257 2.95153339 129.48488086 2.34939575 145.43470764 C2.09076767 152.36719675 1.95678993 159.27870043 2.00405884 166.21624756 C1.99863317 169.93744284 1.77744624 173.60165658 1.5 177.3125 C1.4071875 178.58738281 1.314375 179.86226562 1.21875 181.17578125 C1.1465625 182.10777344 1.074375 183.03976562 1 184 C0.67 184 0.34 184 0 184 C0 123.28 0 62.56 0 0 Z " fill="#A6A6A6" transform="translate(401,175)"/>
<path d="M0 0 C0.33 0 0.66 0 1 0 C1.04241723 2.33294775 1.04092937 4.66702567 1 7 C0 8 0 8 -2.95922852 8.11352539 C-4.25272217 8.10828857 -5.54621582 8.10305176 -6.87890625 8.09765625 C-7.90889992 8.09553383 -7.90889992 8.09553383 -8.95970154 8.09336853 C-11.16067801 8.08775479 -13.36155409 8.07520007 -15.5625 8.0625 C-17.05143083 8.05748676 -18.54036324 8.05292355 -20.02929688 8.04882812 C-23.68623075 8.03778093 -27.34310558 8.02050713 -31 8 C-27.62301212 5.95826465 -25.05453777 5.76474961 -21.140625 5.8046875 C-20.02558594 5.81113281 -18.91054687 5.81757813 -17.76171875 5.82421875 C-16.60285156 5.84097656 -15.44398438 5.85773438 -14.25 5.875 C-12.48849609 5.88853516 -12.48849609 5.88853516 -10.69140625 5.90234375 C-7.79406464 5.92589937 -4.89713559 5.95879348 -2 6 C-1.34 4.02 -0.68 2.04 0 0 Z " fill="#787878" transform="translate(167,344)"/>
<path d="M0 0 C0.66 0.33 1.32 0.66 2 1 C-0.31 3.31 -2.62 5.62 -5 8 C-5.66 7.34 -6.32 6.68 -7 6 C-4.69 4.02 -2.38 2.04 0 0 Z " fill="#707070" transform="translate(225,81)"/>
<path d="" fill="#FFFFFF" transform="translate(0,0)"/>
<path d="" fill="#FFFFFF" transform="translate(0,0)"/>
<path d="" fill="#FFFFFF" transform="translate(0,0)"/>
<path d="" fill="#FFFFFF" transform="translate(0,0)"/>
<path d="" fill="#FFFFFF" transform="translate(0,0)"/>
</svg>
